<?xml version="1.0" encoding="UTF-8" standalone="no"?>
<!-- Generator: Adobe Illustrator 17.1.0, SVG Export Plug-In . SVG Version: 6.00 Build 0)  -->

<svg
   xmlns:dc="http://purl.org/dc/elements/1.1/"
   xmlns:cc="http://creativecommons.org/ns#"
   xmlns:rdf="http://www.w3.org/1999/02/22-rdf-syntax-ns#"
   xmlns:svg="http://www.w3.org/2000/svg"
   xmlns="http://www.w3.org/2000/svg"
   xmlns:sodipodi="http://sodipodi.sourceforge.net/DTD/sodipodi-0.dtd"
   xmlns:inkscape="http://www.inkscape.org/namespaces/inkscape"
   version="1.1"
   id="Capa_1"
   x="0px"
   y="0px"
   viewBox="0 0 242.667 242.667"
   style="enable-background:new 0 0 242.667 242.667;"
   xml:space="preserve"
   sodipodi:docname="rss.svg"
   inkscape:version="0.92.4 (5da689c313, 2019-01-14)"><metadata
   id="metadata39"><rdf:RDF><cc:Work
       rdf:about=""><dc:format>image/svg+xml</dc:format><dc:type
         rdf:resource="http://purl.org/dc/dcmitype/StillImage" /></cc:Work></rdf:RDF></metadata><defs
   id="defs37" /><sodipodi:namedview
   pagecolor="#ffffff"
   bordercolor="#666666"
   borderopacity="1"
   objecttolerance="10"
   gridtolerance="10"
   guidetolerance="10"
   inkscape:pageopacity="0"
   inkscape:pageshadow="2"
   inkscape:window-width="1366"
   inkscape:window-height="706"
   id="namedview35"
   showgrid="false"
   inkscape:zoom="0.97252611"
   inkscape:cx="-6.6836252"
   inkscape:cy="121.3335"
   inkscape:window-x="-8"
   inkscape:window-y="-8"
   inkscape:window-maximized="1"
   inkscape:current-layer="Capa_1" />
<path
   d="M0,0v242.667h242.667V0H0z M70.216,192.128c-11.34,0-20.533-9.193-20.533-20.533s9.193-20.533,20.533-20.533  s20.533,9.193,20.533,20.533S81.556,192.128,70.216,192.128z M142.426,192.128h-26.524c0.055-1.063,0.084-2.132,0.084-3.208  c0-33.901-27.482-61.384-61.384-61.384c-1.658,0-3.295,0.085-4.919,0.214v-26.591c1.629-0.09,3.268-0.144,4.919-0.144  c48.549,0,87.905,39.356,87.905,87.905C142.508,189.996,142.465,191.061,142.426,192.128z M192.902,192.128h-29.204  c0.031-1.068,0.081-2.132,0.081-3.208c0-60.296-48.88-109.176-109.176-109.176c-1.65,0-3.287,0.052-4.919,0.124V50.663  c1.636-0.057,3.27-0.124,4.919-0.124c76.425,0,138.381,61.955,138.381,138.381C192.983,189.996,192.927,191.058,192.902,192.128z"
   id="path2"
   style="fill:#498c80;fill-opacity:1" />
<g
   id="g4">
</g>
<g
   id="g6">
</g>
<g
   id="g8">
</g>
<g
   id="g10">
</g>
<g
   id="g12">
</g>
<g
   id="g14">
</g>
<g
   id="g16">
</g>
<g
   id="g18">
</g>
<g
   id="g20">
</g>
<g
   id="g22">
</g>
<g
   id="g24">
</g>
<g
   id="g26">
</g>
<g
   id="g28">
</g>
<g
   id="g30">
</g>
<g
   id="g32">
</g>
</svg>