<svg width="287" height="45" viewBox="0 0 287 45" fill="none" xmlns="http://www.w3.org/2000/svg">
<path d="M23.4 9.1C22 8.33333 20.5667 7.7 19.1 7.2C17.6667 6.7 16.3167 6.45 15.05 6.45C13.4833 6.45 12.25 6.76667 11.35 7.4C10.45 8.03333 10 8.98333 10 10.25C10 11.1167 10.3333 11.9 11 12.6C11.7 13.2667 12.5833 13.8667 13.65 14.4C14.75 14.9333 15.8833 15.4167 17.05 15.85C18.1167 16.25 19.1667 16.7333 20.2 17.3C21.2667 17.8333 22.2167 18.5167 23.05 19.35C23.8833 20.15 24.55 21.1667 25.05 22.4C25.55 23.6 25.8 25.0833 25.8 26.85C25.8 28.7167 25.3167 30.45 24.35 32.05C23.3833 33.65 21.9667 34.95 20.1 35.95C18.2333 36.9167 15.9333 37.4 13.2 37.4C11.8 37.4 10.3667 37.2667 8.9 37C7.46667 36.7 6.05 36.2667 4.65 35.7C3.25 35.1 1.9 34.35 0.6 33.45L3.8 27.8C4.66667 28.4333 5.6 29 6.6 29.5C7.63333 29.9667 8.66667 30.3333 9.7 30.6C10.7333 30.8667 11.6833 31 12.55 31C13.4167 31 14.2833 30.8833 15.15 30.65C16.05 30.3833 16.7833 29.95 17.35 29.35C17.95 28.75 18.25 27.9167 18.25 26.85C18.25 26.1167 18 25.45 17.5 24.85C17.0333 24.25 16.3833 23.7 15.55 23.2C14.75 22.7 13.8667 22.2667 12.9 21.9C11.7667 21.4667 10.6 20.9667 9.4 20.4C8.2 19.8333 7.06667 19.15 6 18.35C4.96667 17.5167 4.11667 16.5 3.45 15.3C2.81667 14.0667 2.5 12.5667 2.5 10.8C2.5 8.66667 2.96667 6.81667 3.9 5.25C4.86667 3.68333 6.21667 2.45 7.95 1.55C9.68333 0.616664 11.6833 0.0999982 13.95 -4.76837e-07C16.9167 -4.76837e-07 19.3167 0.349999 21.15 1.05C23.0167 1.75 24.6833 2.58333 26.15 3.55L23.4 9.1ZM40.2504 13.3L40.0504 15.15L41.1504 13.75L53.1504 0.199997H62.5504L47.3504 16.7L62.6004 37H53.4004L42.0504 21.3L40.2504 23.1V37H32.9004V0.199997H40.2504V13.3ZM79.2555 0.199997C81.5555 0.199997 83.6055 0.499997 85.4055 1.1C87.2055 1.66666 88.7055 2.5 89.9055 3.6C91.1388 4.66666 92.0721 5.96666 92.7055 7.5C93.3388 9 93.6555 10.7 93.6555 12.6C93.6555 14.1 93.4221 15.6 92.9555 17.1C92.5221 18.6 91.7888 19.9667 90.7555 21.2C89.7555 22.4333 88.4221 23.4333 86.7555 24.2C85.0888 24.9333 83.0221 25.3 80.5555 25.3H75.3555V37H68.1055V0.199997H79.2555ZM80.5055 18.3C81.6055 18.3 82.5221 18.1167 83.2555 17.75C83.9888 17.3833 84.5555 16.9167 84.9555 16.35C85.3888 15.7833 85.6888 15.2 85.8555 14.6C86.0555 13.9667 86.1555 13.3833 86.1555 12.85C86.1555 12.45 86.0888 11.95 85.9555 11.35C85.8555 10.7167 85.6221 10.0833 85.2555 9.45C84.8888 8.81666 84.3221 8.28333 83.5555 7.85C82.8221 7.41667 81.8221 7.2 80.5555 7.2H75.3555V18.3H80.5055ZM87.3055 22.8L96.4055 37H87.9555L78.6555 23L87.3055 22.8ZM102.383 0.199997H127.483V7.2H109.633V15.05H125.433V22.05H109.633V30H128.183V37H102.383V0.199997ZM146.184 29.25C146.184 32.45 145.55 35.1833 144.284 37.45C143.017 39.7167 141.25 41.45 138.984 42.65C136.75 43.8833 134.15 44.55 131.184 44.65V37.6C133.45 37.4667 135.3 36.7667 136.734 35.5C138.167 34.2333 138.884 32.1 138.884 29.1V0.199997H146.184V29.25ZM155.703 0.199997H180.803V7.2H162.953V15.05H178.753V22.05H162.953V30H181.503V37H155.703V0.199997ZM186.504 0.199997H211.304V7.2H202.354V37H195.104V7.2H186.504V0.199997Z" fill="#3CBEB6"/>
<path d="M215.251 34.35C215.251 33.6167 215.517 33 216.051 32.5C216.617 31.9667 217.234 31.7 217.901 31.7C218.501 31.7 219.067 31.9667 219.601 32.5C220.167 33 220.451 33.6167 220.451 34.35C220.451 35.15 220.167 35.8 219.601 36.3C219.067 36.7667 218.501 37 217.901 37C217.234 37 216.617 36.7667 216.051 36.3C215.517 35.8 215.251 35.15 215.251 34.35ZM236.749 0.849998C238.583 0.849998 240.266 1.1 241.799 1.6C243.366 2.06667 244.716 2.78333 245.849 3.75C247.016 4.68333 247.916 5.85 248.549 7.25C249.216 8.61667 249.549 10.2167 249.549 12.05C249.549 13.4833 249.333 14.8833 248.899 16.25C248.499 17.6167 247.816 18.8667 246.849 20C245.883 21.1 244.616 22 243.049 22.7C241.516 23.3667 239.616 23.7 237.349 23.7H231.999V37H227.149V0.849998H236.749ZM237.249 19.05C238.683 19.05 239.866 18.8333 240.799 18.4C241.766 17.9667 242.516 17.4167 243.049 16.75C243.583 16.05 243.966 15.3 244.199 14.5C244.433 13.7 244.549 12.95 244.549 12.25C244.549 11.5167 244.416 10.7667 244.149 10C243.916 9.2 243.516 8.46667 242.949 7.8C242.416 7.13333 241.699 6.58333 240.799 6.15C239.933 5.71666 238.866 5.5 237.599 5.5H231.999V19.05H237.249ZM243.199 21.8L252.649 37H247.049L237.449 21.95L243.199 21.8ZM264.458 24.2C264.458 25.8333 264.842 27.3 265.608 28.6C266.408 29.8667 267.458 30.8667 268.758 31.6C270.058 32.3333 271.525 32.7 273.158 32.7C274.858 32.7 276.375 32.3333 277.708 31.6C279.042 30.8667 280.092 29.8667 280.858 28.6C281.625 27.3 282.008 25.8333 282.008 24.2V0.849998H286.758V24.35C286.758 26.9833 286.142 29.2833 284.908 31.25C283.708 33.2167 282.075 34.7333 280.008 35.8C277.975 36.8667 275.692 37.4 273.158 37.4C270.625 37.4 268.342 36.8667 266.308 35.8C264.275 34.7333 262.658 33.2167 261.458 31.25C260.258 29.2833 259.658 26.9833 259.658 24.35V0.849998H264.458V24.2Z" fill="black"/>
</svg>
