<?xml version="1.0" encoding="UTF-8" standalone="no"?>
<!-- Generator: Adobe Illustrator 17.1.0, SVG Export Plug-In . SVG Version: 6.00 Build 0)  -->

<svg
   xmlns:dc="http://purl.org/dc/elements/1.1/"
   xmlns:cc="http://creativecommons.org/ns#"
   xmlns:rdf="http://www.w3.org/1999/02/22-rdf-syntax-ns#"
   xmlns:svg="http://www.w3.org/2000/svg"
   xmlns="http://www.w3.org/2000/svg"
   xmlns:sodipodi="http://sodipodi.sourceforge.net/DTD/sodipodi-0.dtd"
   xmlns:inkscape="http://www.inkscape.org/namespaces/inkscape"
   version="1.1"
   id="Capa_1"
   x="0px"
   y="0px"
   viewBox="0 0 242.667 242.667"
   style="enable-background:new 0 0 242.667 242.667;"
   xml:space="preserve"
   sodipodi:docname="telegram.svg"
   inkscape:version="0.92.4 (5da689c313, 2019-01-14)"><metadata
   id="metadata39"><rdf:RDF><cc:Work
       rdf:about=""><dc:format>image/svg+xml</dc:format><dc:type
         rdf:resource="http://purl.org/dc/dcmitype/StillImage" /></cc:Work></rdf:RDF></metadata><defs
   id="defs37" /><sodipodi:namedview
   pagecolor="#ffffff"
   bordercolor="#666666"
   borderopacity="1"
   objecttolerance="10"
   gridtolerance="10"
   guidetolerance="10"
   inkscape:pageopacity="0"
   inkscape:pageshadow="2"
   inkscape:window-width="1366"
   inkscape:window-height="706"
   id="namedview35"
   showgrid="false"
   inkscape:zoom="0.97252611"
   inkscape:cx="-6.6836252"
   inkscape:cy="121.3335"
   inkscape:window-x="-8"
   inkscape:window-y="-8"
   inkscape:window-maximized="1"
   inkscape:current-layer="Capa_1" />
<path
   d="M162.443,86.061l-54.044,50.235c-1.899,1.765-3.126,4.135-3.473,6.704l-1.839,13.641c-0.245,1.82-2.806,2.003-3.308,0.237  l-7.08-24.875c-0.808-2.839,0.37-5.87,2.883-7.418l65.484-40.334C162.241,83.528,163.454,85.121,162.443,86.061z M242.667,0v242.667  H0V0H242.667z M188.665,58.301l-137.51,53.047c-3.39,1.308-3.364,6.114,0.04,7.385L84.7,131.24l12.97,41.708  c0.831,2.671,4.099,3.656,6.267,1.888l18.677-15.226c1.958-1.596,4.744-1.674,6.788-0.19l33.689,24.459  c2.319,1.684,5.604,0.414,6.187-2.392l24.675-118.699C194.59,59.727,191.583,57.175,188.665,58.301z"
   id="path2"
   style="fill:#498c80;fill-opacity:1" />
<g
   id="g4">
</g>
<g
   id="g6">
</g>
<g
   id="g8">
</g>
<g
   id="g10">
</g>
<g
   id="g12">
</g>
<g
   id="g14">
</g>
<g
   id="g16">
</g>
<g
   id="g18">
</g>
<g
   id="g20">
</g>
<g
   id="g22">
</g>
<g
   id="g24">
</g>
<g
   id="g26">
</g>
<g
   id="g28">
</g>
<g
   id="g30">
</g>
<g
   id="g32">
</g>
</svg>