<?xml version="1.0" encoding="UTF-8" standalone="no"?>
<!-- Generator: Adobe Illustrator 17.1.0, SVG Export Plug-In . SVG Version: 6.00 Build 0)  -->

<svg
   xmlns:dc="http://purl.org/dc/elements/1.1/"
   xmlns:cc="http://creativecommons.org/ns#"
   xmlns:rdf="http://www.w3.org/1999/02/22-rdf-syntax-ns#"
   xmlns:svg="http://www.w3.org/2000/svg"
   xmlns="http://www.w3.org/2000/svg"
   xmlns:sodipodi="http://sodipodi.sourceforge.net/DTD/sodipodi-0.dtd"
   xmlns:inkscape="http://www.inkscape.org/namespaces/inkscape"
   version="1.1"
   id="Capa_1"
   x="0px"
   y="0px"
   viewBox="0 0 242.667 242.667"
   style="enable-background:new 0 0 242.667 242.667;"
   xml:space="preserve"
   sodipodi:docname="vk.svg"
   inkscape:version="0.92.4 (5da689c313, 2019-01-14)"><metadata
   id="metadata39"><rdf:RDF><cc:Work
       rdf:about=""><dc:format>image/svg+xml</dc:format><dc:type
         rdf:resource="http://purl.org/dc/dcmitype/StillImage" /></cc:Work></rdf:RDF></metadata><defs
   id="defs37" /><sodipodi:namedview
   pagecolor="#ffffff"
   bordercolor="#666666"
   borderopacity="1"
   objecttolerance="10"
   gridtolerance="10"
   guidetolerance="10"
   inkscape:pageopacity="0"
   inkscape:pageshadow="2"
   inkscape:window-width="1366"
   inkscape:window-height="706"
   id="namedview35"
   showgrid="false"
   inkscape:zoom="0.97252611"
   inkscape:cx="-6.6836252"
   inkscape:cy="121.3335"
   inkscape:window-x="-8"
   inkscape:window-y="-8"
   inkscape:window-maximized="1"
   inkscape:current-layer="Capa_1" />
<path
   d="M0,0v242.667h242.667V0H0z M177.006,135.224l21.075,24.216c2.694,3.096,0.495,7.925-3.609,7.925h-23.783  c-3.758,0-7.378-1.423-10.13-3.982l-7.043-6.549c-7.948-6.954-11.326-9.339-14.505-9.339c-3.179,0-3.974,2.384-3.974,8.544  c0,6.159-1.192,11.326-19.472,11.326s-32.586-13.71-48.68-34.97c-16.094-21.26-23.247-44.11-23.247-44.11  c-0.888-2.86,1.25-5.762,4.245-5.762h19.032c3.62,0,6.917,2.092,8.435,5.378c1.558,3.373,4.238,8.578,8.822,16.279  c6.505,10.928,12.754,15.851,16.294,17.947c1.318,0.781,2.98-0.184,2.98-1.716V94.199c0-3.43-1.239-6.744-3.49-9.332l-2.683-3.085  c-0.694-0.798-0.127-2.041,0.93-2.041h30.079c4.609,0,8.345,3.736,8.345,8.345v30.483c0,1.964,2.549,2.732,3.634,1.096  l21.649-32.627c1.707-2.572,4.589-4.119,7.675-4.119h25.413c3.473,0,5.585,3.825,3.736,6.765l-22.487,35.741  C174.312,128.502,174.62,132.482,177.006,135.224z"
   id="path2"
   style="stroke:#498c80;stroke-opacity:1;fill:#498c80;fill-opacity:1" />
<g
   id="g4">
</g>
<g
   id="g6">
</g>
<g
   id="g8">
</g>
<g
   id="g10">
</g>
<g
   id="g12">
</g>
<g
   id="g14">
</g>
<g
   id="g16">
</g>
<g
   id="g18">
</g>
<g
   id="g20">
</g>
<g
   id="g22">
</g>
<g
   id="g24">
</g>
<g
   id="g26">
</g>
<g
   id="g28">
</g>
<g
   id="g30">
</g>
<g
   id="g32">
</g>
</svg>